<svg height="26.451" viewBox="0 0 26.449 26.451" width="26.449" xmlns="http://www.w3.org/2000/svg"><path d="m26.238 11.505-10.792-10.792a2.435 2.435 0 0 0 -3.446 0l-10.782 10.787-.011.011a2.434 2.434 0 0 0 1.62 4.149h.075.43v7.94a2.853 2.853 0 0 0 2.85 2.85h4.218a.775.775 0 0 0 .775-.775v-6.224a1.3 1.3 0 0 1 1.3-1.3h2.49a1.3 1.3 0 0 1 1.3 1.3v6.225a.775.775 0 0 0 .775.775h4.221a2.853 2.853 0 0 0 2.85-2.85v-7.94h.4a2.436 2.436 0 0 0 1.723-4.156zm-1.1 2.347a.88.88 0 0 1 -.626.26h-1.171a.775.775 0 0 0 -.775.775v8.713a1.3 1.3 0 0 1 -1.3 1.3h-3.447v-5.45a2.853 2.853 0 0 0 -2.85-2.85h-2.49a2.854 2.854 0 0 0 -2.85 2.85v5.45h-3.447a1.3 1.3 0 0 1 -1.3-1.3v-8.714a.775.775 0 0 0 -.775-.775h-1.154-.036a.884.884 0 0 1 -.61-1.51l10.793-10.792a.885.885 0 0 1 1.252 0l10.785 10.791h.005a.887.887 0 0 1 -.001 1.252zm0 0" fill="#22d48d" transform="translate(-.499)"/></svg>